<svg xmlns="http://www.w3.org/2000/svg" viewBox="0 0 240 180">
  <rect width="240" height="180" rx="18" fill="#dff7ff"/>
  <ellipse cx="120" cy="112" rx="88" ry="42" fill="#52c7e8"/>
  <ellipse cx="120" cy="106" rx="78" ry="32" fill="#7ee0f4"/>
  <path d="M34 128c32 18 137 18 172 0v22H34z" fill="#63b76a"/>
  <circle cx="72" cy="76" r="9" fill="#fff6a7"/>
  <path d="M58 76h28M72 62v28M62 66l20 20M82 66 62 86" stroke="#ffd45c" stroke-width="4" stroke-linecap="round"/>
  <path d="M150 93c14-23 31-21 45-10-20 4-28 14-45 10zM104 100c-12-22-28-22-43-12 20 5 29 15 43 12z" fill="#65c96e"/>
  <path d="M150 93c15 2 29-2 45-10M104 100c-16 1-29-3-43-12" stroke="#2b9650" stroke-width="3" fill="none" stroke-linecap="round"/>
</svg>
