<svg xmlns="http://www.w3.org/2000/svg" viewBox="0 0 120 120" role="img" aria-label="baby chicken">
  <defs>
    <radialGradient id="g" cx="42%" cy="28%" r="62%">
      <stop offset="0" stop-color="#fff9b8"/>
      <stop offset="1" stop-color="#ffc83d"/>
    </radialGradient>
  </defs>
  <ellipse cx="62" cy="66" rx="34" ry="32" fill="url(#g)" stroke="#e59b16" stroke-width="3"/>
  <circle cx="49" cy="52" r="5" fill="#3b2b26"/>
  <circle cx="73" cy="52" r="5" fill="#3b2b26"/>
  <circle cx="51" cy="50" r="1.6" fill="#fff"/>
  <circle cx="75" cy="50" r="1.6" fill="#fff"/>
  <path d="M57 59h12l-6 8z" fill="#f97316" stroke="#c45a08" stroke-width="1.5"/>
  <path d="M45 31c5 1 8 5 9 10M62 28c2 4 2 8 0 12M78 32c-5 1-8 5-9 10" fill="none" stroke="#e59b16" stroke-width="5" stroke-linecap="round"/>
  <path d="M30 69c-10-1-16-7-16-14 9 0 16 4 20 12" fill="#ffd95f" stroke="#e59b16" stroke-width="3" stroke-linejoin="round"/>
  <path d="M90 69c10-1 16-7 16-14-9 0-16 4-20 12" fill="#ffd95f" stroke="#e59b16" stroke-width="3" stroke-linejoin="round"/>
  <path d="M49 96l-8 10M72 96l8 10" stroke="#d97706" stroke-width="4" stroke-linecap="round"/>
  <ellipse cx="44" cy="108" rx="10" ry="3" fill="#f97316"/>
  <ellipse cx="84" cy="108" rx="10" ry="3" fill="#f97316"/>
</svg>
