<svg xmlns="http://www.w3.org/2000/svg" viewBox="0 0 120 120" role="img" aria-label="baby sheep">
  <g fill="#fff8ec" stroke="#bca68a" stroke-width="3">
    <circle cx="37" cy="61" r="18"/>
    <circle cx="53" cy="49" r="19"/>
    <circle cx="72" cy="52" r="20"/>
    <circle cx="84" cy="68" r="18"/>
    <circle cx="61" cy="71" r="27"/>
  </g>
  <ellipse cx="63" cy="63" rx="25" ry="24" fill="#ead3b8" stroke="#a88366" stroke-width="3"/>
  <path d="M39 55c-13-6-24-1-25 10 11 5 22 1 28-7M84 55c13-6 24-1 25 10-11 5-22 1-28-7" fill="#d9b596" stroke="#a88366" stroke-width="3"/>
  <circle cx="53" cy="61" r="4.5" fill="#2f2724"/>
  <circle cx="73" cy="61" r="4.5" fill="#2f2724"/>
  <path d="M58 72c4 4 9 4 13 0" fill="none" stroke="#6b4a3a" stroke-width="3" stroke-linecap="round"/>
  <path d="M42 91l-8 17M56 96l-2 16M75 96l3 16M89 91l8 17" stroke="#8b6f5a" stroke-width="5" stroke-linecap="round"/>
</svg>
